<mxfile host="65bd71144e">
    <diagram id="play-result-page" name="PlayResult">
        <mxGraphModel dx="1200" dy="800" grid="1" gridSize="10" guides="1" tooltips="1" connect="1" arrows="1" fold="1" page="1" pageScale="1" pageWidth="1200" pageHeight="800" background="#0f0f1e" math="0" shadow="0">
            <root>
                <mxCell id="0"/>
                <mxCell id="1" parent="0"/>
                <!-- Background -->
                <mxCell id="2" value="" style="rounded=0;whiteSpace=wrap;html=1;fillColor=#0f0f1e;strokeColor=#2d2d44;" vertex="1" parent="1">
                    <mxGeometry x="0" y="0" width="1200" height="800" as="geometry"/>
                </mxCell>
                <!-- Header -->
                <mxCell id="3" value="" style="rounded=0;whiteSpace=wrap;html=1;fillColor=#1e1e30;strokeColor=#2d2d44;" vertex="1" parent="1">
                    <mxGeometry x="0" y="0" width="1200" height="80" as="geometry"/>
                </mxCell>
                <mxCell id="4" value="ゲーム結果" style="text;html=1;strokeColor=none;fillColor=none;align=center;verticalAlign=middle;whiteSpace=wrap;rounded=0;fontSize=36;fontColor=#ffd700;fontStyle=1;" vertex="1" parent="1">
                    <mxGeometry x="450" y="20" width="300" height="40" as="geometry"/>
                </mxCell>
                <!-- Main Container -->
                <mxCell id="5" value="" style="rounded=1;whiteSpace=wrap;html=1;fillColor=#1e1e30;strokeColor=#2d2d44;" vertex="1" parent="1">
                    <mxGeometry x="100" y="100" width="1000" height="650" as="geometry"/>
                </mxCell>
                <!-- Score Summary Section -->
                <mxCell id="6" value="" style="rounded=1;whiteSpace=wrap;html=1;fillColor=#2a2a3e;strokeColor=#3d3d55;" vertex="1" parent="1">
                    <mxGeometry x="150" y="130" width="900" height="180" as="geometry"/>
                </mxCell>
                <mxCell id="7" value="最終スコア" style="text;html=1;strokeColor=none;fillColor=none;align=center;verticalAlign=middle;whiteSpace=wrap;rounded=0;fontSize=20;fontColor=#87ceeb;" vertex="1" parent="1">
                    <mxGeometry x="500" y="140" width="200" height="30" as="geometry"/>
                </mxCell>
                <mxCell id="8" value="123,456" style="text;html=1;strokeColor=none;fillColor=none;align=center;verticalAlign=middle;whiteSpace=wrap;rounded=0;fontSize=48;fontColor=#ffd700;fontStyle=1;" vertex="1" parent="1">
                    <mxGeometry x="450" y="170" width="300" height="60" as="geometry"/>
                </mxCell>
                <!-- Stats Row -->
                <mxCell id="9" value="プレイ時間" style="text;html=1;strokeColor=none;fillColor=none;align=center;verticalAlign=middle;whiteSpace=wrap;rounded=0;fontSize=14;fontColor=#888888;" vertex="1" parent="1">
                    <mxGeometry x="200" y="240" width="100" height="20" as="geometry"/>
                </mxCell>
                <mxCell id="10" value="03:45" style="text;html=1;strokeColor=none;fillColor=none;align=center;verticalAlign=middle;whiteSpace=wrap;rounded=0;fontSize=24;fontColor=#ffffff;" vertex="1" parent="1">
                    <mxGeometry x="200" y="260" width="100" height="30" as="geometry"/>
                </mxCell>
                <mxCell id="11" value="最大コンボ" style="text;html=1;strokeColor=none;fillColor=none;align=center;verticalAlign=middle;whiteSpace=wrap;rounded=0;fontSize=14;fontColor=#888888;" vertex="1" parent="1">
                    <mxGeometry x="400" y="240" width="100" height="20" as="geometry"/>
                </mxCell>
                <mxCell id="12" value="x45" style="text;html=1;strokeColor=none;fillColor=none;align=center;verticalAlign=middle;whiteSpace=wrap;rounded=0;fontSize=24;fontColor=#ff6b6b;" vertex="1" parent="1">
                    <mxGeometry x="400" y="260" width="100" height="30" as="geometry"/>
                </mxCell>
                <mxCell id="13" value="泡の総数" style="text;html=1;strokeColor=none;fillColor=none;align=center;verticalAlign=middle;whiteSpace=wrap;rounded=0;fontSize=14;fontColor=#888888;" vertex="1" parent="1">
                    <mxGeometry x="600" y="240" width="100" height="20" as="geometry"/>
                </mxCell>
                <mxCell id="14" value="523" style="text;html=1;strokeColor=none;fillColor=none;align=center;verticalAlign=middle;whiteSpace=wrap;rounded=0;fontSize=24;fontColor=#87ceeb;" vertex="1" parent="1">
                    <mxGeometry x="600" y="260" width="100" height="30" as="geometry"/>
                </mxCell>
                <mxCell id="15" value="獲得経験値" style="text;html=1;strokeColor=none;fillColor=none;align=center;verticalAlign=middle;whiteSpace=wrap;rounded=0;fontSize=14;fontColor=#888888;" vertex="1" parent="1">
                    <mxGeometry x="800" y="240" width="100" height="20" as="geometry"/>
                </mxCell>
                <mxCell id="16" value="+2500" style="text;html=1;strokeColor=none;fillColor=none;align=center;verticalAlign=middle;whiteSpace=wrap;rounded=0;fontSize=24;fontColor=#4ade80;" vertex="1" parent="1">
                    <mxGeometry x="800" y="260" width="100" height="30" as="geometry"/>
                </mxCell>
                <!-- Achievement Section -->
                <mxCell id="17" value="" style="rounded=1;whiteSpace=wrap;html=1;fillColor=#2a2a3e;strokeColor=#3d3d55;" vertex="1" parent="1">
                    <mxGeometry x="150" y="330" width="430" height="200" as="geometry"/>
                </mxCell>
                <mxCell id="18" value="新しい実績" style="text;html=1;strokeColor=none;fillColor=none;align=center;verticalAlign=middle;whiteSpace=wrap;rounded=0;fontSize=18;fontColor=#ffd700;" vertex="1" parent="1">
                    <mxGeometry x="265" y="340" width="200" height="30" as="geometry"/>
                </mxCell>
                <!-- Achievement Item 1 -->
                <mxCell id="19" value="" style="rounded=1;whiteSpace=wrap;html=1;fillColor=#3d3d55;strokeColor=#4d4d66;" vertex="1" parent="1">
                    <mxGeometry x="170" y="380" width="390" height="60" as="geometry"/>
                </mxCell>
                <mxCell id="20" value="★" style="text;html=1;strokeColor=none;fillColor=none;align=center;verticalAlign=middle;whiteSpace=wrap;rounded=0;fontSize=24;fontColor=#ffd700;" vertex="1" parent="1">
                    <mxGeometry x="180" y="395" width="60" height="30" as="geometry"/>
                </mxCell>
                <mxCell id="21" value="コンボマスター" style="text;html=1;strokeColor=none;fillColor=none;align=left;verticalAlign=middle;whiteSpace=wrap;rounded=0;fontSize=16;fontColor=#ffffff;fontStyle=1;" vertex="1" parent="1">
                    <mxGeometry x="250" y="385" width="150" height="25" as="geometry"/>
                </mxCell>
                <mxCell id="22" value="40コンボ以上を達成" style="text;html=1;strokeColor=none;fillColor=none;align=left;verticalAlign=middle;whiteSpace=wrap;rounded=0;fontSize=12;fontColor=#888888;" vertex="1" parent="1">
                    <mxGeometry x="250" y="410" width="200" height="20" as="geometry"/>
                </mxCell>
                <mxCell id="23" value="+100 AP" style="text;html=1;strokeColor=none;fillColor=none;align=center;verticalAlign=middle;whiteSpace=wrap;rounded=0;fontSize=14;fontColor=#4ade80;" vertex="1" parent="1">
                    <mxGeometry x="470" y="395" width="80" height="30" as="geometry"/>
                </mxCell>
                <!-- Achievement Item 2 -->
                <mxCell id="24" value="" style="rounded=1;whiteSpace=wrap;html=1;fillColor=#3d3d55;strokeColor=#4d4d66;" vertex="1" parent="1">
                    <mxGeometry x="170" y="450" width="390" height="60" as="geometry"/>
                </mxCell>
                <mxCell id="25" value="◆" style="text;html=1;strokeColor=none;fillColor=none;align=center;verticalAlign=middle;whiteSpace=wrap;rounded=0;fontSize=24;fontColor=#87ceeb;" vertex="1" parent="1">
                    <mxGeometry x="180" y="465" width="60" height="30" as="geometry"/>
                </mxCell>
                <mxCell id="26" value="サバイバー" style="text;html=1;strokeColor=none;fillColor=none;align=left;verticalAlign=middle;whiteSpace=wrap;rounded=0;fontSize=16;fontColor=#ffffff;fontStyle=1;" vertex="1" parent="1">
                    <mxGeometry x="250" y="455" width="150" height="25" as="geometry"/>
                </mxCell>
                <mxCell id="27" value="3分以上生存" style="text;html=1;strokeColor=none;fillColor=none;align=left;verticalAlign=middle;whiteSpace=wrap;rounded=0;fontSize=12;fontColor=#888888;" vertex="1" parent="1">
                    <mxGeometry x="250" y="480" width="200" height="20" as="geometry"/>
                </mxCell>
                <mxCell id="28" value="+50 AP" style="text;html=1;strokeColor=none;fillColor=none;align=center;verticalAlign=middle;whiteSpace=wrap;rounded=0;fontSize=14;fontColor=#4ade80;" vertex="1" parent="1">
                    <mxGeometry x="470" y="465" width="80" height="30" as="geometry"/>
                </mxCell>
                <!-- Level Up Section -->
                <mxCell id="29" value="" style="rounded=1;whiteSpace=wrap;html=1;fillColor=#2a2a3e;strokeColor=#3d3d55;" vertex="1" parent="1">
                    <mxGeometry x="620" y="330" width="430" height="200" as="geometry"/>
                </mxCell>
                <mxCell id="30" value="レベルアップ！" style="text;html=1;strokeColor=none;fillColor=none;align=center;verticalAlign=middle;whiteSpace=wrap;rounded=0;fontSize=24;fontColor=#4ade80;fontStyle=1;" vertex="1" parent="1">
                    <mxGeometry x="735" y="340" width="200" height="35" as="geometry"/>
                </mxCell>
                <!-- Level Progress -->
                <mxCell id="31" value="レベル 14 → レベル 15" style="text;html=1;strokeColor=none;fillColor=none;align=center;verticalAlign=middle;whiteSpace=wrap;rounded=0;fontSize=18;fontColor=#ffffff;" vertex="1" parent="1">
                    <mxGeometry x="735" y="380" width="200" height="30" as="geometry"/>
                </mxCell>
                <!-- EXP Bar Background -->
                <mxCell id="32" value="" style="rounded=1;whiteSpace=wrap;html=1;fillColor=#3d3d55;strokeColor=#4d4d66;" vertex="1" parent="1">
                    <mxGeometry x="660" y="420" width="350" height="20" as="geometry"/>
                </mxCell>
                <!-- EXP Bar Fill -->
                <mxCell id="33" value="" style="rounded=1;whiteSpace=wrap;html=1;fillColor=#4ade80;strokeColor=none;" vertex="1" parent="1">
                    <mxGeometry x="660" y="420" width="105" height="20" as="geometry"/>
                </mxCell>
                <mxCell id="34" value="レベル16まで 500 / 10,000 EXP" style="text;html=1;strokeColor=none;fillColor=none;align=center;verticalAlign=middle;whiteSpace=wrap;rounded=0;fontSize=12;fontColor=#888888;" vertex="1" parent="1">
                    <mxGeometry x="735" y="445" width="200" height="20" as="geometry"/>
                </mxCell>
                <!-- Unlock Notice -->
                <mxCell id="35" value="新機能解放" style="text;html=1;strokeColor=none;fillColor=none;align=center;verticalAlign=middle;whiteSpace=wrap;rounded=0;fontSize=14;fontColor=#ffd700;" vertex="1" parent="1">
                    <mxGeometry x="785" y="475" width="100" height="20" as="geometry"/>
                </mxCell>
                <mxCell id="36" value="ステージ5が利用可能！" style="text;html=1;strokeColor=none;fillColor=none;align=center;verticalAlign=middle;whiteSpace=wrap;rounded=0;fontSize=16;fontColor=#87ceeb;" vertex="1" parent="1">
                    <mxGeometry x="760" y="495" width="150" height="25" as="geometry"/>
                </mxCell>
                <!-- Detailed Stats Section -->
                <mxCell id="37" value="" style="rounded=1;whiteSpace=wrap;html=1;fillColor=#2a2a3e;strokeColor=#3d3d55;" vertex="1" parent="1">
                    <mxGeometry x="150" y="550" width="900" height="100" as="geometry"/>
                </mxCell>
                <mxCell id="38" value="泡の種類別内訳" style="text;html=1;strokeColor=none;fillColor=none;align=left;verticalAlign=middle;whiteSpace=wrap;rounded=0;fontSize=14;fontColor=#888888;" vertex="1" parent="1">
                    <mxGeometry x="170" y="560" width="150" height="20" as="geometry"/>
                </mxCell>
                <!-- Bubble Type Stats -->
                <mxCell id="39" value="通常: 380" style="text;html=1;strokeColor=none;fillColor=none;align=center;verticalAlign=middle;whiteSpace=wrap;rounded=0;fontSize=14;fontColor=#87ceeb;" vertex="1" parent="1">
                    <mxGeometry x="200" y="590" width="100" height="25" as="geometry"/>
                </mxCell>
                <mxCell id="40" value="ゴールデン: 45" style="text;html=1;strokeColor=none;fillColor=none;align=center;verticalAlign=middle;whiteSpace=wrap;rounded=0;fontSize=14;fontColor=#ffd700;" vertex="1" parent="1">
                    <mxGeometry x="320" y="590" width="100" height="25" as="geometry"/>
                </mxCell>
                <mxCell id="41" value="マルチ: 28" style="text;html=1;strokeColor=none;fillColor=none;align=center;verticalAlign=middle;whiteSpace=wrap;rounded=0;fontSize=14;fontColor=#ff6b6b;" vertex="1" parent="1">
                    <mxGeometry x="440" y="590" width="100" height="25" as="geometry"/>
                </mxCell>
                <mxCell id="42" value="ボム: 15" style="text;html=1;strokeColor=none;fillColor=none;align=center;verticalAlign=middle;whiteSpace=wrap;rounded=0;fontSize=14;fontColor=#e74c3c;" vertex="1" parent="1">
                    <mxGeometry x="560" y="590" width="100" height="25" as="geometry"/>
                </mxCell>
                <mxCell id="43" value="回復: 22" style="text;html=1;strokeColor=none;fillColor=none;align=center;verticalAlign=middle;whiteSpace=wrap;rounded=0;fontSize=14;fontColor=#4ade80;" vertex="1" parent="1">
                    <mxGeometry x="680" y="590" width="100" height="25" as="geometry"/>
                </mxCell>
                <mxCell id="44" value="特殊: 33" style="text;html=1;strokeColor=none;fillColor=none;align=center;verticalAlign=middle;whiteSpace=wrap;rounded=0;fontSize=14;fontColor=#9b59b6;" vertex="1" parent="1">
                    <mxGeometry x="800" y="590" width="100" height="25" as="geometry"/>
                </mxCell>
                <!-- AP Earned -->
                <mxCell id="45" value="獲得AP: +150" style="text;html=1;strokeColor=none;fillColor=none;align=center;verticalAlign=middle;whiteSpace=wrap;rounded=0;fontSize=16;fontColor=#4ade80;fontStyle=1;" vertex="1" parent="1">
                    <mxGeometry x="900" y="590" width="120" height="25" as="geometry"/>
                </mxCell>
                <!-- Action Buttons -->
                <mxCell id="46" value="もう一度プレイ" style="rounded=1;whiteSpace=wrap;html=1;fillColor=#3498db;strokeColor=#2980b9;fontSize=18;fontColor=#ffffff;fontStyle=1;" vertex="1" parent="1">
                    <mxGeometry x="420" y="680" width="160" height="50" as="geometry"/>
                </mxCell>
                <mxCell id="47" value="メニューに戻る" style="rounded=1;whiteSpace=wrap;html=1;fillColor=#5c5c7e;strokeColor=#4c4c6e;fontSize=18;fontColor=#ffffff;" vertex="1" parent="1">
                    <mxGeometry x="620" y="680" width="160" height="50" as="geometry"/>
                </mxCell>
            </root>
        </mxGraphModel>
    </diagram>
</mxfile>